HIERARCHY
ROOT Hips
{
  OFFSET -33.9132 29.2015 117.021
  CHANNELS 6 Xposition Yposition Zposition Zrotation Xrotation Yrotation
  JOINT LeftUpLeg
  {
    OFFSET 8.64259 1.95398 -2.38835
    CHANNELS 3 Zrotation Xrotation Yrotation
    JOINT LeftLeg
    {
      OFFSET 43.7702 0 0
      CHANNELS 3 Zrotation Xrotation Yrotation
      JOINT LeftFoot
      {
        OFFSET 40.6238 0 0
        CHANNELS 3 Zrotation Xrotation Yrotation
        JOINT LeftToeBase
        {
          OFFSET 12.7242 0 0
          CHANNELS 3 Zrotation Xrotation Yrotation
          End Site
          {
            OFFSET 0 0 0
          }
        }
      }
    }
  }
  JOINT RightUpLeg
  {
    OFFSET -8.2249 1.95398 -2.59336
    CHANNELS 3 Zrotation Xrotation Yrotation
    JOINT RightLeg
    {
      OFFSET 43.5653 0 0
      CHANNELS 3 Zrotation Xrotation Yrotation
      JOINT RightFoot
      {
        OFFSET 40.6238 0 0
        CHANNELS 3 Zrotation Xrotation Yrotation
        JOINT RightToeBase
        {
          OFFSET 12.7242 0 0
          CHANNELS 3 Zrotation Xrotation Yrotation
          End Site
          {
            OFFSET 0 0 0
          }
        }
      }
    }
  }
  JOINT Spine
  {
    OFFSET 0.165834 0.87714 6.61349
    CHANNELS 3 Zrotation Xrotation Yrotation
    JOINT Spine1
    {
      OFFSET 7.38963 1.71661e-005 0
      CHANNELS 3 Zrotation Xrotation Yrotation
      JOINT Spine2
      {
        OFFSET 11.9445 1.14441e-005 0
        CHANNELS 3 Zrotation Xrotation Yrotation
        JOINT Spine3
        {
          OFFSET 14.7254 4.19617e-005 0
          CHANNELS 3 Zrotation Xrotation Yrotation
          JOINT Spine4
          {
            OFFSET 10.9679 0 0
            CHANNELS 3 Zrotation Xrotation Yrotation
            JOINT RightShoulder
            {
              OFFSET 2.46616 -1.6653 3.69651
              CHANNELS 3 Zrotation Xrotation Yrotation
              JOINT RightArm
              {
                OFFSET 13.0012 0 0
                CHANNELS 3 Zrotation Xrotation Yrotation
                JOINT RightForeArm
                {
                  OFFSET 28.7848 1.62311e-005 0
                  CHANNELS 3 Zrotation Xrotation Yrotation
                  JOINT RightHand
                  {
                    OFFSET 26.5688 1.62095e-005 0
                    CHANNELS 3 Zrotation Xrotation Yrotation
                    End Site
                    {
                      OFFSET 0 0 0
                    }
                  }
                }
              }
            }
            JOINT LeftShoulder
            {
              OFFSET 2.38034 -1.29275 -3.7523
              CHANNELS 3 Zrotation Xrotation Yrotation
              JOINT LeftArm
              {
                OFFSET 16.3182 6.07031e-005 0
                CHANNELS 3 Zrotation Xrotation Yrotation
                JOINT LeftForeArm
                {
                  OFFSET 27.0901 0 0
                  CHANNELS 3 Zrotation Xrotation Yrotation
                  JOINT LeftHand
                  {
                    OFFSET 24.5451 1.51738e-005 0
                    CHANNELS 3 Zrotation Xrotation Yrotation
                    End Site
                    {
                      OFFSET 0 0 0
                    }
                  }
                }
              }
            }
            JOINT Neck
            {
              OFFSET 5.0226 -0.0266342 0
              CHANNELS 3 Zrotation Xrotation Yrotation
              JOINT Head
              {
                OFFSET 6.69364 2.86102e-005 0
                CHANNELS 3 Zrotation Xrotation Yrotation
                End Site
                {
                  OFFSET 0 0 0
                }
              }
            }
          }
        }
      }
    }
  }
}
MOTION
Frames:	18
Frame Time:	0.0416667
35.9468 30.0659 36.11 -3.04264 -15.2831 -1.06997 -175.878 -0.497574 89.8808 -17.7036 27.769 1.78192 85.763 20.2823 4.62331 32.5504 2.64917 -2.29589 175.447 -4.98063 92.2054 -8.53668 -16.6207 -0.71402 86.5735 -21.1164 -1.89811 51.2293 -9.91144 -2.65607 0.827348 7.58301 -90.18 11.7127 1.56114 -0.52373 0.0425892 1.53656 -0.591946 -22.5001 1.64633 -0.0302174 -2.48742 1.64634 -0.0302182 97.9753 -7.58805 -95.5735 30.9995 2.83734 10.843 -49.7031 -5.76699 -87.2107 -67.0442 0.755979 -6.37882 -83.169 -25.3387 85.7017 0.68518 -1.92762 -38.9159 68.8343 57.3966 -72.7875 -24.0633 40.8358 -113.842 19.9506 -0.599982 -1.28809 5.74319 -0.0452075 1.73882 
36.0113 25.8988 36.6381 -1.87211 -14.9762 -1.11079 -175.898 -2.96058 90.2882 -17.8825 31.876 2.32169 87.4993 22.1459 5.16795 31.2761 -1.88453 7.53198 176.682 -7.47793 92.7 -8.94892 -14.7723 -2.5348 88.434 -23.8559 -4.04472 50.813 -9.77299 1.57546 0.757237 7.37331 -90.1585 12.131 1.43034 -0.474322 0.460754 1.40808 -0.536824 -22.0807 1.50675 -0.0224218 -2.06806 1.50675 -0.0224175 98.4726 -8.1747 -93.8291 32.1968 -0.474192 13.2598 -41.5167 -3.77172 -88.1158 -83.7974 3.81434 -9.41809 -82.8463 -25.4275 86.3942 1.64852 2.18961 -32.8317 73.0382 51.298 -74.9808 -21.7537 39.4562 -116.796 25.2791 -1.17635 -2.09007 5.49445 -0.165985 2.8829 
36.0405 22.5933 37.591 -3.65087 -15.2255 -1.16656 -174.539 -4.55811 91.2152 -19.7437 34.0662 1.37284 87.0565 22.8253 7.45027 21.0251 -0.554574 -6.66076 176.795 -9.88085 92.5939 -9.06204 -15.0968 -2.82478 88.7165 -23.5158 -2.2785 52.2429 -10.3655 1.25822 0.862815 7.20521 -90.2644 12.4692 1.58853 -0.711008 0.798962 1.5557 -0.780247 -21.7437 1.72875 -0.200575 -1.73109 1.72875 -0.200587 98.4237 -8.01415 -94.0301 32.2756 -1.5994 23.9289 -42.3324 0.460863 -94.806 -81.8766 5.1017 -11.0308 -82.974 -27.364 86.4628 5.18878 7.35409 -24.9152 85.3247 46.6866 -81.9353 -12.8619 31.9393 -126.818 29.3275 -0.660298 -1.76472 4.11435 0.203364 2.28501 
36.1158 19.8786 38.5382 -3.49142 -15.4866 -1.20687 -174.491 -6.93804 90.9276 -19.4057 34.807 1.5741 86.5763 23.3045 8.9323 -8.51692 -2.18461 -18.483 176.743 -11.3495 92.1366 -10.7589 -16.3702 -3.41935 89.2514 -23.7188 -2.34476 50.19 -9.46153 -0.77635 0.78286 7.1369 -90.2524 12.605 1.43479 -0.671888 0.934611 1.40383 -0.734399 -21.6067 1.57037 -0.209526 -1.59405 1.57037 -0.209522 98.7833 -7.37939 -93.0868 31.5673 -0.456289 38.2683 -54.179 9.3659 -100.292 -67.3621 6.13479 -14.7887 -82.9083 -27.1568 86.5636 5.57494 12.1045 -18.9541 75.1405 41.1092 -74.2712 -18.1733 33.9925 -118.024 33.3914 -0.808883 -1.67614 3.00928 -0.00744172 0.782683 
36.1 17.9507 39.4626 -3.02672 -14.6983 -0.495938 -174.277 -7.40487 91.6464 -19.2609 32.8732 1.83439 87.9361 22.6894 5.4943 7.32191 -2.58598 -9.95874 176.523 -11.3109 92.2916 -12.0514 -17.6862 -3.07583 88.3743 -22.7673 -2.55739 48.5477 -8.85875 1.94136 0.768676 6.97429 -90.2789 12.9304 1.39244 -0.72615 1.25993 1.35913 -0.786745 -21.2808 1.54629 -0.274017 -1.26821 1.54629 -0.274022 98.3215 -8.16817 -94.285 33.404 -3.63131 36.7127 -43.4336 5.6932 -99.7406 -87.3209 8.77253 -14.565 -82.7521 -27.3383 86.9081 3.91191 15.2005 -14.6405 80.7397 38.3281 -76.1668 -15.8215 31.7397 -119.71 36.2358 -1.3947 -2.8365 2.57818 0.044793 1.69164 
35.9896 16.6028 40.2855 -2.78556 -14.1727 -0.50991 -174.5 -7.46592 91.5284 -19.8069 33.6193 2.15866 86.8349 22.0415 5.9943 16.1524 -2.58043 -6.11359 176.214 -11.1519 91.7604 -13.1937 -19.4271 -3.16182 89.0514 -23.0807 -2.58832 45.9573 -7.72903 1.22348 0.745812 6.84865 -90.243 13.1814 1.36314 -0.655976 1.51094 1.33295 -0.715336 -21.0297 1.49725 -0.215885 -1.01709 1.49725 -0.215876 98.0414 -9.09428 -94.8755 34.1038 -4.65764 42.0086 -42.3351 6.47942 -100.929 -91.2178 9.05824 -14.0812 -83.2142 -28.4892 86.167 3.00954 17.8275 -9.60334 81.3982 35.5913 -75.6332 -16.2266 30.9307 -117.288 36.8743 -1.53772 -2.29143 2.27651 -0.354485 1.05657 
35.806 15.5397 40.9238 -2.96326 -13.6334 -0.346239 -174.234 -7.89064 91.7632 -19.1281 30.2505 1.92195 88.1565 20.9426 1.74888 -16.4836 -5.99188 -18.776 176.36 -11.3811 92.0038 -13.1445 -19.932 -3.24638 87.7785 -22.1419 -2.90715 45.4616 -7.85084 6.30009 0.755187 6.77442 -90.2213 13.3294 1.39158 -0.618857 1.65905 1.36299 -0.679533 -20.8819 1.51323 -0.171927 -0.869266 1.51323 -0.171954 98.6661 -7.65847 -93.3678 35.8749 -9.41188 47.1951 -45.3648 9.04615 -102.859 -89.9313 6.9449 -12.1293 -82.9007 -27.4228 86.6207 -0.498775 18.2143 -6.20098 81.4493 33.6126 -74.873 -17.3202 31.0469 -114.593 37.2369 -1.79987 -2.53254 2.89684 -0.466176 1.27351 
35.6475 14.5847 41.3731 -3.27734 -13.1676 -0.202303 -174.086 -8.10331 91.5044 -18.9099 28.4518 1.6645 86.7494 20.6568 3.36337 12.2599 -6.36974 -3.18403 176.543 -11.5311 92.2118 -13.4566 -19.7452 -3.32981 88.2537 -21.8419 -1.74243 43.6871 -7.01908 3.96762 0.778635 6.7186 -90.2641 13.4419 1.41686 -0.710162 1.7715 1.38424 -0.771841 -20.7695 1.56477 -0.251406 -0.756898 1.56477 -0.251413 98.2997 -8.74912 -94.1966 35.7419 -9.32494 50.6095 -42.9287 9.75277 -104.588 -92.8926 8.93702 -13.7102 -83.3507 -27.608 85.739 -2.86729 18.5821 -1.74625 89.1118 33.425 -77.9909 -13.1376 27.0474 -117.824 37.7264 -1.3441 -2.27805 2.5697 -0.155323 1.09098 
35.594 13.461 41.6919 -2.49007 -12.9316 -0.0647054 -174.606 -8.67588 90.8424 -18.9309 27.8804 2.16947 85.4587 20.6558 5.391 6.26265 -11.9206 0.668784 176.29 -12.1872 92.147 -13.2094 -19.6943 -3.1602 88.1111 -21.8113 -1.88896 43.5455 -7.09217 5.7077 0.712073 6.68395 -90.2813 13.5105 1.27621 -0.727779 1.83994 1.24294 -0.783249 -20.6998 1.43592 -0.310518 -0.687151 1.43593 -0.310512 98.5276 -8.2996 -93.6224 36.132 -10.5909 53.1958 -43.6953 10.9985 -105.653 -96.6525 7.70125 -12.0683 -83.2094 -28.2837 86.1407 -2.61435 19.8376 0.527535 93.0225 32.9592 -79.1262 -10.3608 23.6447 -119.719 38.3022 -1.28895 -2.04883 2.30812 -0.201519 1.09858 
35.4389 12.2554 41.9303 -2.16706 -12.9368 -0.102914 -174.641 -9.71911 90.7538 -18.4217 26.1404 2.28971 86.0958 20.3594 3.51345 2.68451 -15.6004 3.00976 176.378 -12.0736 92.2118 -14.9636 -20.1083 -3.36881 87.1418 -20.8381 -2.06452 46.2247 -7.92627 2.63517 0.711334 6.6484 -90.3357 13.5822 1.24798 -0.8345 1.91149 1.21005 -0.888615 -20.6277 1.44107 -0.42079 -0.6151 1.44107 -0.420797 98.3079 -9.18889 -94.0348 35.0023 -7.76666 60.8818 -44.0158 13.6221 -108.338 -93.0764 7.36703 -12.1744 -83.4527 -27.0952 85.4402 -4.99528 19.5042 2.57993 93.1909 33.2388 -79.4223 -9.92103 22.3263 -118.504 37.959 -0.837486 -1.09121 2.64179 -0.254173 0.515532 
35.384 11.1596 42.0456 -1.89509 -13.2474 -0.130333 -174.346 -10.9452 90.8712 -18.0308 25.7769 2.05057 86.6838 20.4868 2.68983 4.05823 -15.7618 4.30102 176.336 -12.8617 92.2848 -15.7198 -20.6567 -3.56713 86.9945 -21.52 -3.90065 45.3755 -7.55701 2.30557 0.720391 6.65027 -90.3336 13.5785 1.26701 -0.832533 1.90787 1.22915 -0.887497 -20.6315 1.45863 -0.413198 -0.618892 1.45864 -0.413191 98.1875 -9.6894 -94.2556 34.5863 -7.03328 59.952 -41.4262 12.7762 -108.811 -97.4165 11.9775 -15.7788 -83.8172 -26.806 84.6433 -4.834 21.3427 4.37087 91.2674 32.2165 -77.8473 -9.92431 21.5784 -117.764 37.5214 -1.28784 -1.86134 3.49151 -0.266319 1.52755 
35.3867 10.4744 42.0383 -0.842034 -13.6067 -0.057824 -174.411 -11.446 90.8117 -18.8651 25.0913 2.29127 87.9441 21.0659 1.91229 10.8772 -11.2019 3.76738 176.047 -13.8752 92.222 -15.3004 -19.5843 -3.2744 87.3521 -21.6464 -3.38053 45.9004 -7.71897 1.45548 0.59982 6.63565 -90.3367 13.6064 1.02619 -0.808221 1.93558 0.98963 -0.852596 -20.602 1.22164 -0.462406 -0.589367 1.22164 -0.462412 98.1046 -8.99613 -94.7116 34.8795 -7.7171 62.2949 -40.5798 13.211 -109.801 -97.2079 12.6049 -16.3578 -84.0969 -27.6763 84.2462 -3.88193 21.8098 5.78673 90.4899 31.5927 -77.2824 -9.66463 20.9946 -117.929 36.754 -0.929017 -0.761756 4.06249 -0.529299 -0.00330748 
35.3949 10.25 42.0011 -0.0401719 -13.8229 -0.0164411 -174.499 -11.7077 90.966 -18.9725 25.9883 2.53094 88.2605 21.0208 1.32236 8.82473 -10.9056 1.54841 175.781 -14.3739 92.0731 -15.3377 -19.4184 -3.14989 87.9395 -22.0271 -3.24995 44.1812 -7.06145 2.16884 0.484784 6.6401 -90.2801 13.5961 0.825572 -0.668359 1.92519 0.795363 -0.70404 -20.6115 0.988269 -0.389334 -0.598825 0.988271 -0.389321 97.8263 -9.64909 -95.3494 34.8396 -7.40523 62.1444 -39.5905 12.7346 -109.817 -98.4793 13.0977 -16.5327 -83.8417 -26.454 84.5205 -5.4652 21.786 6.31863 90.2452 31.0321 -77.044 -9.90309 21.3317 -117.89 36.4685 -1.31934 -2.06177 4.72263 -0.261459 0.703132 
35.3302 10.2196 41.9424 0.326205 -13.8285 -0.102371 -174.605 -12.0703 91.1244 -18.5272 28.4328 2.78139 87.6313 21.462 3.0101 5.82939 -8.75916 -3.8439 175.738 -13.9657 91.713 -16.198 -19.6488 -3.3799 88.6541 -21.6772 -1.78797 44.7602 -7.28425 2.03609 0.467273 6.64262 -90.2643 13.5909 0.798546 -0.633202 1.92005 0.769907 -0.667743 -20.6166 0.951925 -0.363907 -0.603926 0.951931 -0.363923 97.2616 -10.9829 -96.5732 33.9664 -5.02654 64.1027 -39.6578 13.18 -110.32 -96.5416 14.6777 -18.3613 -84.0419 -26.4015 84.0991 -5.79627 21.8494 6.87634 90.0484 30.8067 -76.9032 -9.70046 20.9146 -117.897 36.6313 -1.34939 -2.15322 4.94113 -0.205159 1.28589 
35.3198 10.1314 41.8858 0.61011 -13.9404 -0.262026 -174.684 -11.5612 91.5254 -19.7158 31.126 2.9982 87.4836 21.4104 3.16957 9.68281 -7.63375 -2.6756 175.363 -13.8899 91.1259 -16.8662 -21.1026 -3.43982 89.4241 -22.3106 -2.00891 43.6725 -6.96013 3.26982 0.475335 6.67379 -90.2221 13.5286 0.835249 -0.552632 1.85783 0.810122 -0.588868 -20.6792 0.962719 -0.276042 -0.666508 0.96272 -0.276046 97.9464 -10.3148 -94.787 34.6111 -6.93061 63.9346 -40.336 13.5489 -110.347 -97.9863 13.5581 -17.0423 -84.0994 -26.0097 83.8973 -6.04221 22.1467 7.14642 89.556 30.4955 -76.4303 -9.58716 20.5361 -117.79 36.935 -1.93132 -3.2416 5.08833 -0.16144 2.51569 
35.3066 9.9717 42.021 1.0062 -14.2987 -0.315005 -174.484 -11.1944 92.2222 -20.6953 34.9415 3.16145 86.0423 20.6814 4.11012 13.5752 -5.16306 -3.58433 175.033 -13.9086 90.7841 -17.7008 -23.1255 -3.4113 87.9148 -21.6689 -3.28528 47.5252 -8.26644 -0.955687 0.418908 6.69704 -90.2538 13.4816 0.708103 -0.599156 1.81072 0.681054 -0.629746 -20.7255 0.855436 -0.358627 -0.712847 0.855438 -0.358637 97.8846 -9.84169 -95.1085 34.5932 -6.78987 65.8496 -42.7725 14.8327 -110.33 -96.0157 13.1341 -17.0751 -84.5008 -27.8416 83.4676 -4.36519 22.5288 8.1865 90.4098 30.1812 -76.7219 -8.47336 19.0879 -118.98 36.3606 -1.48548 -2.1455 5.2215 -0.337931 1.30558 
35.269 9.9954 42.0039 0.773712 -14.0996 -0.327961 -174.086 -10.5685 92.9647 -21.4371 36.9898 3.07291 86.9309 21.0189 3.53725 5.35002 -8.03896 -5.23028 175.314 -14.1878 91.0839 -16.772 -20.8422 -3.40783 89.0611 -22.076 -1.95853 44.1312 -7.14555 3.24747 0.454731 6.70321 -90.2897 13.47 0.761812 -0.67779 1.7991 0.731248 -0.710667 -20.7372 0.930293 -0.417488 -0.724549 0.930294 -0.417505 97.7591 -9.10368 -95.7368 34.9691 -7.61082 66.7641 -43.1803 15.1806 -110.457 -96.9932 12.0437 -15.8961 -84.2265 -27.0292 83.853 -5.88408 22.2617 7.7778 87.8548 29.2135 -75.7048 -9.94905 20.7428 -117.688 36.6453 -1.25053 -1.44666 4.94721 -0.469695 0.740675 
35.2991 10.0509 41.9408 0.557809 -13.9127 -0.576351 -174.628 -10.2137 92.529 -21.989 36.5014 3.42942 87.4269 20.9417 2.59527 -5.48865 -11.3156 -7.94716 175.131 -14.0984 91.0393 -16.5752 -20.0727 -3.18677 89.189 -22.6151 -2.65163 42.8629 -6.62199 3.37924 0.498028 6.70897 -90.2656 13.4584 0.859433 -0.641995 1.7876 0.830336 -0.679216 -20.7494 1.01263 -0.354003 -0.736691 1.01264 -0.354011 97.8449 -9.29549 -95.4075 34.9148 -7.59556 66.8675 -43.5885 15.4143 -110.459 -97.4435 11.8189 -15.6104 -84.0863 -26.2131 83.9687 -6.58551 21.5321 7.36677 91.1859 30.2223 -77.286 -7.76666 18.3799 -120.185 36.7357 -1.42764 -1.92331 4.92499 -0.362697 1.54455 
